<?xml version="1.0" encoding="UTF-8" standalone="no"?>
<!-- Created with Inkscape (http://www.inkscape.org/) -->

<svg
   width="79.482483mm"
   height="45.800186mm"
   viewBox="0 0 79.482483 45.800186"
   version="1.1"
   id="svg5"
   xmlns="http://www.w3.org/2000/svg"
   xmlns:svg="http://www.w3.org/2000/svg">
  <defs
     id="defs2" />
  <g
     id="layer1"
     transform="translate(-49.984029,-146.61909)">
    <g
       id="g494"
       transform="translate(12.7,8.4666666)">
      <path
         id="path234"
         style="fill:#ff6600;stroke-width:0;paint-order:fill markers stroke"
         d="M 94.719795,138.15242 A 18.798332,18.798332 0 0 0 75.92146,156.95076 18.798332,18.798332 0 0 0 94.719795,175.74909 18.798332,18.798332 0 0 0 113.51814,156.95076 18.798332,18.798332 0 0 0 94.719795,138.15242 Z m 0,5.05809 A 15.395514,13.740125 0 0 1 110.11525,156.95076 15.395514,13.740125 0 0 1 94.719795,170.691 15.395514,13.740125 0 0 1 79.32384,156.95076 15.395514,13.740125 0 0 1 94.719795,143.21051 Z" />
      <path
         id="path374"
         style="fill:#000000;stroke-width:0;paint-order:fill markers stroke"
         d="m 77.765796,151.70702 a 20.072365,20.999437 0 0 0 -18.638139,13.21625 16.212906,14.952291 0 0 0 -5.630664,-0.93173 16.212906,14.952291 0 0 0 -16.212964,14.95206 16.212906,14.952291 0 0 0 0.954464,5.009 H 115.7826 a 16.212906,14.952291 0 0 0 0.98392,-5.09478 16.212906,14.952291 0 0 0 -16.21245,-14.95258 16.212906,14.952291 0 0 0 -4.329452,0.55346 20.072365,20.999437 0 0 0 -18.458822,-12.75168 z" />
      <path
         id="path374-7"
         style="fill:#f2f2f2;stroke-width:0;paint-order:fill markers stroke"
         d="m 75.007186,154.84137 a 16.949273,17.7321 0 0 0 -15.7382,11.15991 13.690313,12.625839 0 0 0 -4.75458,-0.78676 13.690313,12.625839 0 0 0 -13.690362,12.62565 13.690313,12.625839 0 0 0 0.805957,4.22964 h 65.478889 a 13.690313,12.625839 0 0 0 0.83083,-4.30208 13.690313,12.625839 0 0 0 -13.689924,-12.62608 13.690313,12.625839 0 0 0 -3.655826,0.46734 16.949273,17.7321 0 0 0 -15.586784,-10.76762 z" />
    </g>
  </g>
</svg>
